<?xml version="1.0" encoding="utf-8"?>
<!-- Generator: Adobe Illustrator 18.1.1, SVG Export Plug-In . SVG Version: 6.00 Build 0)  -->
<svg version="1.1" id="Layer_1" xmlns="http://www.w3.org/2000/svg" xmlns:xlink="http://www.w3.org/1999/xlink" x="0px" y="0px"
	 viewBox="0 0 960 114" enable-background="new 0 0 960 114" xml:space="preserve">
<g>
	<g>
		<g>
			<path fill="#FFFFFF" d="M57.8,12.7H69c4.9,0,9.4,0.7,13.5,2.1c4.1,1.4,7.6,3.5,10.6,6.1c3,2.7,5.3,6,7,9.9
				c1.7,3.9,2.5,8.4,2.5,13.4c0,5.1-0.9,9.6-2.7,13.6c-1.8,4-4.2,7.3-7.3,10.1c-3.1,2.8-6.6,4.9-10.7,6.3c-4.1,1.4-8.4,2.1-12.9,2.1
				H57.8v12.2H44.8V76.4H33.6c-4.9,0-9.4-0.7-13.6-2.1c-4.1-1.4-7.7-3.5-10.7-6.1c-3-2.7-5.3-6-6.9-9.9C0.8,54.2,0,49.8,0,44.8
				c0-5.1,0.9-9.6,2.7-13.6c1.8-4,4.2-7.3,7.3-10.1c3.1-2.8,6.6-4.9,10.7-6.3c4.1-1.4,8.4-2.1,12.9-2.1h11.1V0h13.1V12.7z
				 M34.8,23.8c-7.1,0-12.5,1.8-16.2,5.5c-3.7,3.7-5.6,8.8-5.6,15.5c0,6.7,1.9,11.8,5.8,15.3c3.9,3.5,9.2,5.2,15.9,5.2h10V23.8H34.8
				z M67.8,65.2c7,0,12.4-1.9,16.1-5.6c3.8-3.7,5.6-8.8,5.6-15.4c0-6.7-1.9-11.8-5.8-15.3c-3.9-3.5-9.2-5.2-15.9-5.2h-10v41.4H67.8z
				"/>
			<path fill="#FFFFFF" d="M171.9,23.5c4.4,1.7,8.2,4.1,11.4,7.1c3.2,3.1,5.7,6.7,7.4,10.9c1.7,4.2,2.6,8.9,2.6,14
				c0,4.9-0.9,9.5-2.7,13.7c-1.8,4.2-4.3,7.9-7.4,11c-3.1,3.1-6.9,5.5-11.3,7.2c-4.4,1.7-9.2,2.6-14.4,2.6c-5.3,0-10.2-0.8-14.6-2.5
				c-4.4-1.7-8.2-4.1-11.3-7.1c-3.1-3.1-5.6-6.7-7.3-10.9c-1.7-4.2-2.6-8.9-2.6-14c0-4.9,0.9-9.5,2.7-13.7c1.8-4.2,4.2-7.9,7.4-11
				c3.1-3.1,6.9-5.5,11.3-7.2c4.4-1.7,9.2-2.6,14.5-2.6C162.6,21,167.5,21.8,171.9,23.5z M147.7,33.5c-2.9,1.2-5.3,2.8-7.4,4.9
				c-2,2.1-3.6,4.6-4.7,7.6c-1.1,2.9-1.6,6.1-1.6,9.6c0,3.5,0.6,6.8,1.7,9.7c1.1,2.9,2.7,5.4,4.7,7.5c2,2.1,4.5,3.7,7.3,4.9
				c2.8,1.2,6,1.7,9.6,1.7c3.6,0,6.9-0.6,9.7-1.7c2.8-1.2,5.3-2.8,7.3-4.9c2-2.1,3.6-4.6,4.7-7.5c1.1-2.9,1.6-6.2,1.6-9.7
				c0-3.5-0.6-6.6-1.7-9.5c-1.1-2.9-2.7-5.4-4.7-7.5c-2-2.1-4.5-3.8-7.3-5c-2.8-1.2-6-1.8-9.6-1.8C153.8,31.7,150.6,32.3,147.7,33.5
				z"/>
			<path fill="#FFFFFF" d="M271.5,33.4h-24.3v55.1h-12.7V33.4h-24.3V22.5h61.3V33.4z"/>
			<path fill="#FFFFFF" d="M338.8,23.5c4.4,1.7,8.2,4.1,11.4,7.1c3.2,3.1,5.7,6.7,7.4,10.9c1.7,4.2,2.6,8.9,2.6,14
				c0,4.9-0.9,9.5-2.7,13.7c-1.8,4.2-4.3,7.9-7.4,11c-3.1,3.1-6.9,5.5-11.3,7.2c-4.4,1.7-9.2,2.6-14.4,2.6c-5.3,0-10.2-0.8-14.6-2.5
				c-4.4-1.7-8.2-4.1-11.3-7.1c-3.1-3.1-5.6-6.7-7.3-10.9c-1.7-4.2-2.6-8.9-2.6-14c0-4.9,0.9-9.5,2.7-13.7c1.8-4.2,4.2-7.9,7.4-11
				c3.1-3.1,6.9-5.5,11.3-7.2c4.4-1.7,9.2-2.6,14.5-2.6C329.6,21,334.4,21.8,338.8,23.5z M314.7,33.5c-2.9,1.2-5.3,2.8-7.4,4.9
				c-2,2.1-3.6,4.6-4.7,7.6c-1.1,2.9-1.6,6.1-1.6,9.6c0,3.5,0.6,6.8,1.7,9.7c1.1,2.9,2.7,5.4,4.7,7.5c2,2.1,4.5,3.7,7.3,4.9
				c2.8,1.2,6,1.7,9.6,1.7c3.6,0,6.9-0.6,9.7-1.7c2.8-1.2,5.3-2.8,7.3-4.9c2-2.1,3.6-4.6,4.7-7.5c1.1-2.9,1.6-6.2,1.6-9.7
				c0-3.5-0.6-6.6-1.7-9.5c-1.1-2.9-2.7-5.4-4.7-7.5c-2-2.1-4.5-3.8-7.3-5c-2.8-1.2-6-1.8-9.6-1.8S317.6,32.3,314.7,33.5z"/>
			<path fill="#FFFFFF" d="M443.4,88.5h-12.8V33.3h-35.5v55.3h-12.8v-66h61.1V88.5z"/>
			<path fill="#FFFFFF" d="M515.8,23.5c4.4,1.7,8.2,4.1,11.4,7.1c3.2,3.1,5.7,6.7,7.4,10.9c1.7,4.2,2.6,8.9,2.6,14
				c0,4.9-0.9,9.5-2.7,13.7c-1.8,4.2-4.3,7.9-7.4,11c-3.1,3.1-6.9,5.5-11.3,7.2c-4.4,1.7-9.2,2.6-14.4,2.6c-5.3,0-10.2-0.8-14.6-2.5
				s-8.2-4.1-11.3-7.1c-3.1-3.1-5.6-6.7-7.3-10.9c-1.7-4.2-2.6-8.9-2.6-14c0-4.9,0.9-9.5,2.7-13.7c1.8-4.2,4.2-7.9,7.4-11
				c3.1-3.1,6.9-5.5,11.3-7.2c4.4-1.7,9.2-2.6,14.5-2.6C506.6,21,511.4,21.8,515.8,23.5z M491.7,33.5c-2.9,1.2-5.3,2.8-7.4,4.9
				c-2,2.1-3.6,4.6-4.7,7.6c-1.1,2.9-1.6,6.1-1.6,9.6c0,3.5,0.6,6.8,1.7,9.7c1.1,2.9,2.7,5.4,4.7,7.5c2,2.1,4.5,3.7,7.3,4.9
				c2.8,1.2,6,1.7,9.6,1.7c3.6,0,6.9-0.6,9.7-1.7c2.8-1.2,5.3-2.8,7.3-4.9c2-2.1,3.6-4.6,4.7-7.5c1.1-2.9,1.6-6.2,1.6-9.7
				c0-3.5-0.6-6.6-1.7-9.5c-1.1-2.9-2.7-5.4-4.7-7.5c-2-2.1-4.5-3.8-7.3-5c-2.8-1.2-6-1.8-9.6-1.8C497.8,31.7,494.6,32.3,491.7,33.5
				z"/>
			<path fill="#FFFFFF" d="M570.6,34.6c3-4.9,6.6-8.4,10.8-10.5c4.2-2.1,9.1-3.1,14.8-3.1c4.7,0,8.9,0.8,12.8,2.4
				c3.9,1.6,7.2,3.8,10,6.7c2.8,2.9,4.9,6.4,6.4,10.6c1.5,4.2,2.3,8.9,2.3,14c0,5.8-1,10.9-2.9,15.3c-1.9,4.4-4.5,8.1-7.7,11.1
				c-3.2,3-6.9,5.2-11,6.7c-4.1,1.5-8.5,2.3-12.9,2.3c-4.2,0-8-0.5-11.5-1.4c-3.4-0.9-6.7-2.5-9.9-4.8V114h-12.4V22.5h10L570.6,34.6
				z M592.1,79.1c3.4,0,6.4-0.6,9.3-1.7c2.8-1.1,5.2-2.7,7.2-4.9c2-2.1,3.5-4.7,4.7-7.8c1.1-3.1,1.7-6.5,1.7-10.4
				c0-3.3-0.5-6.3-1.4-9.1c-0.9-2.8-2.2-5.1-4-7.1c-1.8-2-3.9-3.5-6.5-4.7c-2.5-1.1-5.4-1.7-8.6-1.7c-5.6,0-10.3,1.5-14.1,4.5
				c-3.8,3-6.6,7-8.5,12v23.6C577.5,76.7,584.3,79.1,592.1,79.1z"/>
			<path fill="#FFFFFF" d="M706.1,33.4h-24.3v55.1h-12.7V33.4h-24.3V22.5h61.3V33.4z"/>
			<path fill="#FFFFFF" d="M738.8,34.6c3-4.9,6.6-8.4,10.8-10.5c4.2-2.1,9.1-3.1,14.8-3.1c4.7,0,8.9,0.8,12.8,2.4
				c3.9,1.6,7.2,3.8,10,6.7c2.8,2.9,4.9,6.4,6.4,10.6c1.5,4.2,2.3,8.9,2.3,14c0,5.8-1,10.9-2.9,15.3c-1.9,4.4-4.5,8.1-7.7,11.1
				c-3.2,3-6.9,5.2-11,6.7c-4.1,1.5-8.5,2.3-12.9,2.3c-4.2,0-8-0.5-11.5-1.4c-3.4-0.9-6.7-2.5-9.9-4.8V114h-12.4V22.5h10L738.8,34.6
				z M760.3,79.1c3.4,0,6.4-0.6,9.3-1.7c2.8-1.1,5.2-2.7,7.2-4.9s3.5-4.7,4.7-7.8c1.1-3.1,1.7-6.5,1.7-10.4c0-3.3-0.5-6.3-1.4-9.1
				c-0.9-2.8-2.2-5.1-4-7.1c-1.8-2-3.9-3.5-6.5-4.7c-2.5-1.1-5.4-1.7-8.6-1.7c-5.6,0-10.3,1.5-14.1,4.5c-3.8,3-6.6,7-8.5,12v23.6
				C745.8,76.7,752.5,79.1,760.3,79.1z"/>
			<path fill="#FFFFFF" d="M834.7,74c4.1,3.4,9.4,5,16.2,5c4.6,0,8.7-0.6,12.5-1.7c3.8-1.2,7.4-3,10.8-5.5l5.7,8.9
				c-4.4,3.4-9,5.8-13.7,7.2c-4.7,1.4-9.9,2.1-15.5,2.1c-5.6,0-10.6-0.8-15-2.4c-4.4-1.6-8.1-3.9-11.2-6.9c-3.1-3-5.4-6.6-7.1-10.8
				c-1.6-4.2-2.5-9-2.5-14.4c0-5,0.9-9.6,2.6-13.8c1.7-4.2,4.1-7.9,7.2-11c3.1-3.1,6.9-5.5,11.3-7.2c4.4-1.7,9.3-2.6,14.6-2.6
				c4.7,0,8.9,0.7,12.7,2.2c3.8,1.5,7.1,3.6,9.8,6.3c2.7,2.7,4.8,6,6.3,9.8c1.5,3.8,2.3,8,2.3,12.6c0,1.4-0.1,2.7-0.3,4.1
				c-0.2,1.3-0.4,2.7-0.6,3.9h-53.2C828.3,65.9,830.7,70.7,834.7,74z M864.2,36.6c-3.1-3.2-7.8-4.8-14.1-4.8c-6.3,0-11.3,1.6-15,4.7
				c-3.7,3.2-6,7.4-7,12.9H869C868.9,44.1,867.3,39.8,864.2,36.6z"/>
			<path fill="#FFFFFF" d="M960,33.4h-24.3v55.1H923V33.4h-24.3V22.5H960V33.4z"/>
		</g>
	</g>
</g>
</svg>
