<svg width="80" height="80" xmlns="http://www.w3.org/2000/svg">
 <metadata id="metadata8">image/svg+xml</metadata>
 <defs>
  <clipPath clipPathUnits="userSpaceOnUse" id="clipPath18">
   <path d="m8,-7l3685,0l0,1693.780029l-3685,0l0,-1693.780029z" id="path20"/>
  </clipPath>
 </defs>
 <g>
  <title>Layer 1</title>
  <path fill="#231f20" fill-rule="nonzero" d="m13.999774,4.025639l23.98906,0l0,6.112139c-7.894787,0.990276 -14.000315,7.722576 -14.000315,15.883978c0,8.163052 6.105528,14.892883 14.000315,15.883968l0,6.136154l-14.000315,0l0,28.00087l-9.988746,0l0,-72.017109zm28.014691,37.880085c7.893974,-0.991085 14.000332,-7.720917 14.000332,-15.883968c0,-8.161402 -6.106358,-14.893702 -14.000332,-15.883978l0,-6.112139l23.988243,0l0,72.017109l-9.987911,0l0,-28.00087l-14.000332,0l0,-6.136154zm-4.025631,-4.065384c-2.436745,-0.409855 -4.683056,-1.558266 -6.465698,-3.340893c-2.262869,-2.265354 -3.512295,-5.27507 -3.512295,-8.477692c0,-3.200972 1.249426,-6.213165 3.512295,-8.476027c1.782642,-1.782647 4.028954,-2.931057 6.465698,-3.340082l0,23.634693zm0,38.202408l-9.977993,0l0,-23.977715l9.977993,0l0,23.977715zm-28.014698,4.025734l60.051727,0l0,-80.068481l-60.051727,0l0,80.068481" id="path22"/>
  <rect id="svg_1" height="0" width="126.000003" y="90.160004" x="121.666654" stroke-width="5" stroke="#000000" fill="#FF0000"/>
 </g>
</svg>